<svg width="400" height="120" xmlns="http://www.w3.org/2000/svg">

 <g>
  <title>background</title>
  <rect fill="none" id="canvas_background" height="402" width="582" y="-1" x="-1"/>
 </g>
 <g>
  <title>Layer 1</title>
  <g id="big_play">
   <g id="big_play_opaque">
    <path id="svg_51" fill=" #fff" d="m60.27,77.01a1.06,1.06 0 0 1 0,2l-30.28,17.49c-1,0.55 -1.73,0.1 -1.73,-1l0,-35c0,-1.1 0.78,-1.55 1.73,-1l30.28,17.51z"/>
    <path id="svg_52" fill=" none" stroke=" #fff" stroke-width=" 5px" opacity="0.75" d="m2.5,79.01a37.5,37.5 0 1 1 37.5,37.5a37.5,37.5 0 0 1 -37.5,-37.5z"/>
   </g>
   <g id="big_play_hover">
    <path id="svg_53" fill=" #fff" d="m140.27,77.01a1.06,1.06 0 0 1 0,2l-30.28,17.49c-1,0.55 -1.73,0.1 -1.73,-1l0,-35c0,-1.1 0.78,-1.55 1.73,-1l30.28,17.51z"/>
    <path id="svg_54" fill=" none" stroke=" #fff" stroke-width=" 5px" d="m82.5,79.01a37.5,37.5 0 1 1 37.5,37.5a37.5,37.5 0 0 1 -37.5,-37.5z"/>
   </g>
   <g id="loading">
    <circle id="svg_55" fill=" #fff" r="8.13" cy="47.13" cx="201.88"/>
    <circle id="svg_56" fill=" #fff" opacity="0.4" r="5" cy="79.01" cx="233.88"/>
    <circle id="svg_57" fill=" #fff" opacity="0.6" r="6" cy="110.88" cx="201.88"/>
    <circle id="svg_58" fill=" #fff" opacity="0.8" r="7" cy="79.01" cx="170.13"/>
    <circle id="svg_59" fill=" #fff" opacity="0.9" r="7.5" cy="56.34" cx="178.25"/>
    <circle id="svg_60" fill=" #fff" opacity="0.3" r="4.5" cy="56.09" cx="226.33"/>
    <circle id="svg_61" fill=" #fff" opacity="0.5" r="5.5" cy="102.76" cx="225.75"/>
    <circle id="svg_62" fill=" #fff" opacity="0.7" r="6.5" cy="102.76" cx="178.25"/>
   </g>
  </g>
  <g id="svg_87">
   <g id="play">
    <path id="svg_1" fill=" #d90000" d="m16.48,8.49a0.56,0.56 0 0 1 0,1l-11.38,7c-0.47,0.29 -0.85,0.07 -0.85,-0.48l0,-14c0,-0.55 0.38,-0.77 0.85,-0.48l11.38,6.96z"/>
   </g>
   <g id="fullscreen">
    <g id="enter">
     <path id="svg_5" fill=" #fff" d="m81,1.39a1,1 0 0 1 1,-1l5.41,0c0.55,0 0.68,0.32 0.29,0.71l-6,6c-0.39,0.39 -0.71,0.26 -0.71,-0.29l0.01,-5.42z"/>
     <path id="svg_6" fill=" #fff" d="m81,17.18a1,1 0 0 0 1,1l5.41,0c0.55,0 0.68,-0.32 0.29,-0.71l-6,-6c-0.39,-0.39 -0.71,-0.26 -0.71,0.29l0.01,5.42z"/>
     <path id="svg_7" fill=" #fff" d="m98.8,1.39a1,1 0 0 0 -1,-1l-5.42,0c-0.55,0 -0.68,0.32 -0.29,0.71l6,6c0.39,0.39 0.71,0.26 0.71,-0.29l0,-5.42z"/>
     <path id="svg_8" fill=" #fff" d="m98.8,17.18a1,1 0 0 1 -1,1l-5.42,0c-0.55,0 -0.68,-0.32 -0.29,-0.71l6,-6c0.39,-0.39 0.71,-0.26 0.71,0.29l0,5.42z"/>
    </g>
    <g id="exit">
     <g id="svg_9">
      <path id="svg_10" fill=" #fff" d="m112.7,5.01a1,1 0 0 0 1,1l4.1,0c0.55,0 0.68,-0.32 0.29,-0.71l-4.68,-4.68c-0.39,-0.39 -0.71,-0.26 -0.71,0.29l0,4.1z"/>
      <path id="svg_11" fill=" #fff" d="m105.6,6.01a1,1 0 0 0 1,-1l0,-4.12c0,-0.55 -0.32,-0.68 -0.71,-0.29l-4.72,4.68c-0.39,0.39 -0.26,0.71 0.29,0.71l4.14,0.02z"/>
      <path id="svg_12" fill=" #fff" d="m106.6,13.08a1,1 0 0 0 -1,-1l-4.1,0c-0.55,0 -0.68,0.32 -0.29,0.71l4.68,4.68c0.39,0.39 0.71,0.26 0.71,-0.29l0,-4.1z"/>
      <path id="svg_13" fill=" #fff" d="m113.7,12.08a1,1 0 0 0 -1,1l0,4.1c0,0.55 0.32,0.68 0.71,0.29l4.68,-4.68c0.39,-0.39 0.26,-0.71 -0.29,-0.71l-4.1,0z"/>
     </g>
    </g>
   </g>
   <g id="volume">
    <g id="unmuted">
     <path id="svg_14" fill=" #d90000" d="m66.97,5.78a3.51,3.51 0 0 1 -1.8,0.6l-3.15,0a1,1 0 0 0 -1,1l0,5.73a1,1 0 0 0 1,1l3.15,0a6.28,6.28 0 0 1 1,0a8.5,8.5 0 0 0 0.81,0.63l3.54,2.6c0.44,0.33 0.81,0.14 0.81,-0.41l0,-13.42c0,-0.55 -0.36,-0.73 -0.8,-0.4l-3.56,2.67z"/>
     <path id="svg_15" fill=" none" stroke=" #d90000" stroke-linecap=" round" stroke-width=" 1.5px" d="m73.89,2.51s3.95,-0.81 3.87,7.73s-3.87,7.77 -3.87,7.77"/>
     <path id="svg_16" fill=" none" stroke=" #d90000" stroke-linecap=" round" stroke-width=" 1.5px" d="m72.6,6.39s2.63,-0.38 2.57,3.85s-2.58,3.86 -2.58,3.86"/>
    </g>
    <g id="muted">
     <path id="svg_17" fill=" #d90000" d="m46.97,5.78a3.51,3.51 0 0 1 -1.8,0.6l-3.15,0a1,1 0 0 0 -1,1l0,5.73a1,1 0 0 0 1,1l3.15,0a6.28,6.28 0 0 1 1,0a8.5,8.5 0 0 0 0.81,0.63l3.54,2.6c0.44,0.33 0.81,0.14 0.81,-0.41l0,-13.42c0,-0.55 -0.36,-0.73 -0.8,-0.4l-3.56,2.67z"/>
     <line id="svg_18" fill=" none" stroke=" #d90000" stroke-linecap=" round" stroke-width=" 2px" y2="12.36" x2="58.22" y1="6.98" x1="52.83"/>
     <line id="svg_19" fill=" none" stroke=" #d90000" stroke-linecap=" round" stroke-width=" 2px" y2="6.98" x2="58.22" y1="12.36" x1="52.83"/>
    </g>
   </g>
   <g id="closed_captions">
    <path id="svg_20" fill=" none" stroke=" #fff" d="m128.7,8.59c-6.17,-4.21 -6.46,7.77 0,3.92"/>
    <path id="svg_21" fill=" none" stroke=" #fff" d="m135.23,8.59c-6.17,-4.21 -6.46,7.77 0,3.92"/>
    <path id="svg_22" fill=" #fff" d="m122.17,3.36l15.69,0l0,13.08l-15.69,0l0,-13.08zm-1.32,-1.35l0,15.73l18.32,0l0,-15.73l-18.32,0z"/>
   </g>
   <g id="jumpforward">
    <path id="svg_23" fill=" #fff" d="m192.17,2.17l-4.33,2.16l0,-4.32l4.33,2.16z"/>
    <path id="svg_24" fill=" #fff" d="m194.9,2.17l-4.33,2.16l0,-4.32l4.33,2.16z"/>
    <path id="svg_25" fill=" none" stroke=" #fff" stroke-width=" 2px" d="m190,2.17a8.15,8.15 0 0 0 -8.16,8.16"/>
    <path id="svg_26" fill=" none" stroke=" #fff" stroke-width=" 2px" d="m181.85,9.84a8.15,8.15 0 0 0 8.15,8.17"/>
    <path id="svg_27" fill=" none" stroke=" #fff" stroke-width=" 2px" d="m189.63,18.01a8.15,8.15 0 0 0 8.16,-8.16"/>
   </g>
   <g id="skipback">
    <path id="svg_28" fill=" none" stroke=" #fff" stroke-width=" 2px" d="m162.69,9.66a8.15,8.15 0 0 0 8.16,8.16"/>
    <path id="svg_29" fill=" none" stroke=" #fff" stroke-width=" 2px" d="m170.37,17.81a8.15,8.15 0 0 0 8.16,-8.16"/>
    <path id="svg_30" fill=" none" stroke=" #fff" stroke-width=" 2px" d="m178.53,10.01a8.15,8.15 0 0 0 -8.16,-8.16"/>
    <path id="svg_31" fill=" #fff" d="m166.59,2.17l4.32,2.16l0,-4.32l-4.32,2.16z"/>
    <path id="svg_32" fill=" #fff" d="m163.87,2.17l4.3,2.16l0,-4.32l-4.3,2.16z"/>
   </g>
   <g id="svg_33">
    <rect id="svg_34" fill=" #fff" ry="2" rx="2" height="14" width="18" y="3.01" x="141.17"/>
    <path id="svg_35" fill=" #231f20" d="m146.36,13.79a2.69,2.69 0 0 1 -2.14,-1a3.87,3.87 0 0 1 0.12,-4.78c0.51,-0.56 2,-1.65 4.64,0.16l-0.56,0.83c-1.43,-1 -2.62,-1.09 -3.34,-0.31a2.89,2.89 0 0 0 -0.08,3.47c0.7,0.86 1.92,0.83 3.45,-0.08l0.51,0.86a5.13,5.13 0 0 1 -2.6,0.85z"/>
    <path id="svg_36" fill=" #231f20" d="m153.9,13.79a2.69,2.69 0 0 1 -2.14,-1a3.87,3.87 0 0 1 0.12,-4.78c0.51,-0.56 2,-1.65 4.64,0.16l-0.56,0.83c-1.43,-1 -2.62,-1.09 -3.34,-0.31a2.89,2.89 0 0 0 -0.08,3.47c0.7,0.86 1.92,0.83 3.45,-0.08l0.51,0.86a5.13,5.13 0 0 1 -2.6,0.85z"/>
   </g>
   <g id="settings">
    <path id="svg_37" fill=" #fff" d="m218.63,9.39a1.35,1.35 0 0 0 -1,-1.24l-1.85,-0.46a0.7,0.7 0 0 1 -0.46,-1.1l1,-1.64a1.35,1.35 0 0 0 -0.15,-1.58l0,0a1.35,1.35 0 0 0 -1.56,-0.19l-1.64,1a0.7,0.7 0 0 1 -1.1,-0.46l-0.46,-1.85a1.35,1.35 0 0 0 -1.24,-1l0,0a1.35,1.35 0 0 0 -1.24,1l-0.46,1.85a0.7,0.7 0 0 1 -1.1,0.46l-1.64,-1a1.35,1.35 0 0 0 -1.56,0.19l0,0a1.35,1.35 0 0 0 -0.19,1.56l1,1.64a0.7,0.7 0 0 1 -0.46,1.1l-1.85,0.46a1.35,1.35 0 0 0 -1,1.24l0,0a1.35,1.35 0 0 0 1,1.24l1.85,0.46a0.7,0.7 0 0 1 0.46,1.1l-1,1.64a1.35,1.35 0 0 0 0.19,1.56l0,0a1.35,1.35 0 0 0 1.56,0.19l1.64,-1a0.7,0.7 0 0 1 1.1,0.46l0.46,1.85a1.35,1.35 0 0 0 1.24,1l0,0a1.35,1.35 0 0 0 1.24,-1l0.46,-1.85a0.7,0.7 0 0 1 1.1,-0.46l1.64,1a1.35,1.35 0 0 0 1.56,-0.19l0,0a1.35,1.35 0 0 0 0.19,-1.56l-1,-1.64a0.7,0.7 0 0 1 0.46,-1.1l1.85,-0.46a1.35,1.35 0 0 0 1,-1.24l-0.04,0.02zm-5.64,-0.02a2.82,2.82 0 1 1 -2.82,-2.82a2.82,2.82 0 0 1 2.78,2.82l0.04,0z"/>
   </g>
   <g id="stop">
    <rect id="svg_38" fill=" #fff" ry="2" rx="2" height="14" width="14" y="2.84" x="223"/>
   </g>
   <g id="loop">
    <g id="loop_on">
     <path id="svg_39" fill=" #fff" d="m254.22,6.53a5.72,5.72 0 1 1 -8.7,-0.27l-1.62,-1.62a8,8 0 1 0 11.94,0.26l-1.62,1.63z"/>
     <path id="svg_40" fill=" #fff" d="m251.3,3.37a0.72,0.72 0 0 1 0.85,-0.85l5.52,0.77c0.54,0.08 0.67,0.46 0.28,0.84l-5,5c-0.39,0.39 -0.77,0.26 -0.84,-0.28l-0.81,-5.48z"/>
    </g>
    <g opacity="0.5" id="loop_off">
     <path id="svg_41" fill=" #fff" d="m274.38,6.78a5.72,5.72 0 1 1 -8.7,-0.27l-1.62,-1.62a8,8 0 1 0 11.94,0.26l-1.62,1.63z"/>
     <path id="svg_42" fill=" #fff" d="m271.46,3.62a0.72,0.72 0 0 1 0.85,-0.85l5.52,0.77c0.54,0.08 0.67,0.46 0.28,0.84l-5,5c-0.39,0.39 -0.77,0.26 -0.84,-0.28l-0.81,-5.48z"/>
    </g>
   </g>
   <g id="replay">
    <path id="svg_43" fill=" #d90000" d="m298.81,9.55a0.79,0.79 0 0 1 -1.1,0.64l-4.86,-1.82c-0.51,-0.19 -0.55,-0.58 -0.07,-0.85l6.18,-3.57c0.48,-0.27 0.79,-0.06 0.7,0.49l-0.85,5.11z"/>
    <path id="svg_44" fill=" #d90000" d="m290.17,16.09a6.22,6.22 0 0 1 -2.9,-0.71a5.94,5.94 0 0 1 -3.2,-5.24a6.11,6.11 0 0 1 11.87,-1.89l0.1,-0.15l2.13,1.06a8.1,8.1 0 0 0 -16.12,1a7.93,7.93 0 0 0 4.26,7a8.22,8.22 0 0 0 3.83,0.95a8.13,8.13 0 0 0 6.57,-3.32l-1.8,-0.93a6.14,6.14 0 0 1 -4.74,2.23z"/>
   </g>
   <g id="chapters">
    <rect id="svg_45" fill=" #fff" ry="2" rx="2" height="3" width="3" y="3.01" x="302"/>
    <rect id="svg_46" fill=" #fff" ry="2" rx="2" height="3" width="15" y="3.01" x="307"/>
    <rect id="svg_47" fill=" #fff" ry="2" rx="2" height="3" width="3" y="8.01" x="302"/>
    <rect id="svg_48" fill=" #fff" ry="2" rx="2" height="3" width="15" y="8.01" x="307"/>
    <rect id="svg_49" fill=" #fff" ry="2" rx="2" height="3" width="3" y="13.01" x="302"/>
    <rect id="svg_50" fill=" #fff" ry="2" rx="2" height="3" width="15" y="13.01" x="307"/>
   </g>
   <g id="svg_64">
    <path id="svg_63" fill=" #d90000" d="m16.48,8.49a0.56,0.56 0 0 1 0,1l-11.38,7c-0.47,0.29 -0.85,0.07 -0.85,-0.48l0,-14c0,-0.55 0.38,-0.77 0.85,-0.48l11.38,6.96z"/>
   </g>
   <g id="svg_66">
    <path id="svg_65" fill=" #d90000" d="m16.48,8.49a0.56,0.56 0 0 1 0,1l-11.38,7c-0.47,0.29 -0.85,0.07 -0.85,-0.48l0,-14c0,-0.55 0.38,-0.77 0.85,-0.48l11.38,6.96z"/>
   </g>
   <g id="svg_82">
    <path id="svg_79" fill=" #d90000" d="m344.760669,8.878245a0.56,0.56 0 0 1 0,1l-11.38,7c-0.47,0.29 -0.85,0.07 -0.85,-0.48l0,-14c0,-0.55 0.38,-0.77 0.85,-0.48l11.38,6.96z"/>
    <rect id="svg_81" fill=" #d90000" ry="1" rx="1" height="16" width="4.2" y="1.392653" x="341.928456"/>
   </g>
   <g id="svg_83">
    <rect id="svg_3" fill=" #d90000" ry="1" rx="1" height="16" width="4.2" y="1.01" x="23"/>
    <rect id="svg_4" fill=" #d90000" ry="1" rx="1" height="16" width="4.2" y="1.01" x="32.8"/>
   </g>
   <g transform="rotate(180 369.5079650878906,8.856938362121584) " id="svg_86">
    <path id="svg_84" fill=" #d90000" d="m374.939241,8.342526a0.56,0.56 0 0 1 0,1l-11.38,7c-0.47,0.29 -0.85,0.07 -0.85,-0.48l0,-14c0,-0.55 0.38,-0.77 0.85,-0.48l11.38,6.96z"/>
    <rect id="svg_85" fill=" #d90000" ry="1" rx="1" height="16" width="4.2" y="0.856939" x="372.107027"/>
   </g>
  </g>
 </g>
</svg>